<svg width="96" height="96" viewBox="0 0 96 96" fill="none" xmlns="http://www.w3.org/2000/svg">
<rect width="96" height="96" rx="26" fill="#010103"/>
<g filter="url(#filter0_d_0_1)">
<path d="M26.7305 53.3986C26.2155 53.4003 25.7107 53.2571 25.2745 52.9855C24.8384 52.714 24.4888 52.3252 24.2666 51.8645C24.0443 51.4037 23.9584 50.8898 24.0188 50.3826C24.0792 49.8753 24.2835 49.3954 24.6079 48.9987L51.5477 21.4659C51.7498 21.2345 52.0252 21.0782 52.3287 21.0225C52.6321 20.9668 52.9457 21.0152 53.2178 21.1596C53.4899 21.3039 53.7045 21.5358 53.8263 21.8171C53.9481 22.0984 53.9698 22.4124 53.888 22.7076L48.6633 38.9574C48.5092 39.3664 48.4575 39.8063 48.5125 40.2395C48.5675 40.6727 48.7277 41.0862 48.9792 41.4446C49.2307 41.8029 49.5661 42.0953 49.9566 42.2968C50.3471 42.4983 50.781 42.6028 51.2212 42.6014H70.2695C70.7845 42.5997 71.2893 42.7429 71.7255 43.0145C72.1616 43.286 72.5112 43.6748 72.7334 44.1355C72.9557 44.5963 73.0416 45.1102 72.9812 45.6174C72.9208 46.1247 72.7165 46.6046 72.3921 47.0013L45.4523 74.5341C45.2502 74.7655 44.9748 74.9218 44.6713 74.9775C44.3679 75.0332 44.0543 74.9848 43.7822 74.8404C43.5101 74.6961 43.2955 74.4642 43.1737 74.1829C43.0519 73.9016 43.0302 73.5876 43.112 73.2924L48.3367 57.0426C48.4908 56.6336 48.5425 56.1937 48.4875 55.7605C48.4325 55.3273 48.2723 54.9138 48.0208 54.5554C47.7693 54.1971 47.4339 53.9047 47.0434 53.7032C46.6529 53.5017 46.219 53.3972 45.7788 53.3986H26.7305Z" fill="#929292" fill-opacity="0.37" shape-rendering="crispEdges"/>
<path d="M26.7305 53.3986C26.2155 53.4003 25.7107 53.2571 25.2745 52.9855C24.8384 52.714 24.4888 52.3252 24.2666 51.8645C24.0443 51.4037 23.9584 50.8898 24.0188 50.3826C24.0792 49.8753 24.2835 49.3954 24.6079 48.9987L51.5477 21.4659C51.7498 21.2345 52.0252 21.0782 52.3287 21.0225C52.6321 20.9668 52.9457 21.0152 53.2178 21.1596C53.4899 21.3039 53.7045 21.5358 53.8263 21.8171C53.9481 22.0984 53.9698 22.4124 53.888 22.7076L48.6633 38.9574C48.5092 39.3664 48.4575 39.8063 48.5125 40.2395C48.5675 40.6727 48.7277 41.0862 48.9792 41.4446C49.2307 41.8029 49.5661 42.0953 49.9566 42.2968C50.3471 42.4983 50.781 42.6028 51.2212 42.6014H70.2695C70.7845 42.5997 71.2893 42.7429 71.7255 43.0145C72.1616 43.286 72.5112 43.6748 72.7334 44.1355C72.9557 44.5963 73.0416 45.1102 72.9812 45.6174C72.9208 46.1247 72.7165 46.6046 72.3921 47.0013L45.4523 74.5341C45.2502 74.7655 44.9748 74.9218 44.6713 74.9775C44.3679 75.0332 44.0543 74.9848 43.7822 74.8404C43.5101 74.6961 43.2955 74.4642 43.1737 74.1829C43.0519 73.9016 43.0302 73.5876 43.112 73.2924L48.3367 57.0426C48.4908 56.6336 48.5425 56.1937 48.4875 55.7605C48.4325 55.3273 48.2723 54.9138 48.0208 54.5554C47.7693 54.1971 47.4339 53.9047 47.0434 53.7032C46.6529 53.5017 46.219 53.3972 45.7788 53.3986H26.7305Z" stroke="url(#paint0_linear_0_1)" stroke-width="7" stroke-linecap="round" stroke-linejoin="round" shape-rendering="crispEdges"/>
</g>
<defs>
<filter id="filter0_d_0_1" x="5.5" y="2.5" width="86" height="91" filterUnits="userSpaceOnUse" color-interpolation-filters="sRGB">
<feFlood flood-opacity="0" result="BackgroundImageFix"/>
<feColorMatrix in="SourceAlpha" type="matrix" values="0 0 0 0 0 0 0 0 0 0 0 0 0 0 0 0 0 0 127 0" result="hardAlpha"/>
<feOffset/>
<feGaussianBlur stdDeviation="7.5"/>
<feComposite in2="hardAlpha" operator="out"/>
<feColorMatrix type="matrix" values="0 0 0 0 1 0 0 0 0 1 0 0 0 0 1 0 0 0 0.38 0"/>
<feBlend mode="normal" in2="BackgroundImageFix" result="effect1_dropShadow_0_1"/>
<feBlend mode="normal" in="SourceGraphic" in2="effect1_dropShadow_0_1" result="shape"/>
</filter>
<linearGradient id="paint0_linear_0_1" x1="47.8079" y1="21" x2="49.1921" y2="75" gradientUnits="userSpaceOnUse">
<stop stop-color="#E8D6FA"/>
<stop offset="0.336538" stop-color="#39D9F5"/>
<stop offset="0.533654" stop-color="#F0FB8E"/>
<stop offset="0.875" stop-color="#F948FF"/>
</linearGradient>
</defs>
</svg>
